<mxfile host="Electron" agent="Mozilla/5.0 (X11; Linux x86_64) AppleWebKit/537.36 (KHTML, like Gecko) draw.io/26.1.1 Chrome/132.0.6834.210 Electron/34.3.3 Safari/537.36" version="26.1.1">
  <diagram id="cZRN4G9xNxKDvMC0TaF2" name="Page-1">
    <mxGraphModel dx="1434" dy="870" grid="1" gridSize="10" guides="1" tooltips="1" connect="1" arrows="1" fold="1" page="1" pageScale="1" pageWidth="850" pageHeight="1100" background="#ffffff" math="0" shadow="0">
      <root>
        <mxCell id="0" />
        <mxCell id="1" parent="0" />
        <mxCell id="SlMoRp7Oh4frHvZLBsp3-3" value="" style="group" parent="1" vertex="1" connectable="0">
          <mxGeometry x="230" y="122" width="110" height="100" as="geometry" />
        </mxCell>
        <mxCell id="SlMoRp7Oh4frHvZLBsp3-4" value="&lt;font color=&quot;#663cdc&quot; style=&quot;font-size: 14px&quot;&gt;&lt;br&gt;Security&amp;nbsp;Server&lt;br&gt;(consumer)&lt;br&gt;&lt;/font&gt;" style="rounded=1;whiteSpace=wrap;html=1;strokeColor=#663CDC;strokeWidth=2;fillColor=none;" parent="SlMoRp7Oh4frHvZLBsp3-3" vertex="1">
          <mxGeometry width="110.00000000000001" height="100.00000000000003" as="geometry" />
        </mxCell>
        <mxCell id="SlMoRp7Oh4frHvZLBsp3-5" value="" style="shape=image;verticalLabelPosition=bottom;labelBackgroundColor=#ffffff;verticalAlign=top;aspect=fixed;imageAspect=0;image=data:image/svg+xml,PHN2ZyB4bWxucz0iaHR0cDovL3d3dy53My5vcmcvMjAwMC9zdmciIHhtbG5zOnhsaW5rPSJodHRwOi8vd3d3LnczLm9yZy8xOTk5L3hsaW5rIiB3aWR0aD0iMjBweCIgaGVpZ2h0PSIxOHB4IiB2aWV3Qm94PSIwIDAgMjAgMTgiIHZlcnNpb249IjEuMSI+JiN4YTsgICAgPCEtLSBHZW5lcmF0b3I6IFNrZXRjaCA1OCAoODQ2NjMpIC0gaHR0cHM6Ly9za2V0Y2guY29tIC0tPiYjeGE7ICAgIDx0aXRsZT5Db21iaW5lZCBTaGFwZTwvdGl0bGU+JiN4YTsgICAgPGRlc2M+Q3JlYXRlZCB3aXRoIFNrZXRjaC48L2Rlc2M+JiN4YTsgICAgPGcgaWQ9IlN0eWxlZ3VpZGUtJmFtcDstVHlwZXBhZ2VzIiBzdHJva2U9Im5vbmUiIHN0cm9rZS13aWR0aD0iMSIgZmlsbD0ibm9uZSIgZmlsbC1ydWxlPSJldmVub2RkIj4mI3hhOyAgICAgICAgPGcgaWQ9Ikljb25zIiB0cmFuc2Zvcm09InRyYW5zbGF0ZSgtODg4LjAwMDAwMCwgLTQ3Ny4wMDAwMDApIiBmaWxsPSIjNjYzQ0RDIj4mI3hhOyAgICAgICAgICAgIDxwYXRoIGQ9Ik04OTIsNDgzIEw4OTQsNDgzIEw4OTQsNDkxIEw4OTcsNDkxIEw4OTcsNDgzIEw4OTksNDgzIEw4OTksNDkxIEw5MDIsNDkxIEw5MDIsNDgzIEw5MDQsNDgzIEw5MDQsNDkxIEw5MDYsNDkxIEw5MDYsNDkzIEw5MDgsNDkzIEw5MDgsNDk1IEw4ODgsNDk1IEw4ODgsNDkzIEw4OTAsNDkzIEw4OTAsNDkxIEw4OTIsNDkxIEw4OTIsNDgzIFogTTg5OCw0NzcgQzkwMS44MjQzMzQsNDc3IDkwNS4wNTg3NzcsNDc5LjUyNTYyMyA5MDYuMTI2Mzc1LDQ4Mi45OTk5MTQgTDg4OS44NzM2MjUsNDgyLjk5OTkxNCBDODkwLjk0MTIyMyw0NzkuNTI1NjIzIDg5NC4xNzU2NjYsNDc3IDg5OCw0NzcgWiIgaWQ9IkNvbWJpbmVkLVNoYXBlIi8+JiN4YTsgICAgICAgIDwvZz4mI3hhOyAgICA8L2c+JiN4YTs8L3N2Zz4=;" parent="SlMoRp7Oh4frHvZLBsp3-3" vertex="1">
          <mxGeometry x="41.25" y="16.50504278728597" width="25" height="22.5" as="geometry" />
        </mxCell>
        <mxCell id="SlMoRp7Oh4frHvZLBsp3-10" value="" style="group" parent="1" vertex="1" connectable="0">
          <mxGeometry x="458" y="32" width="110" height="100" as="geometry" />
        </mxCell>
        <mxCell id="SlMoRp7Oh4frHvZLBsp3-11" value="&lt;font color=&quot;#663cdc&quot; style=&quot;font-size: 14px&quot;&gt;&lt;br&gt;Security&amp;nbsp;Server&lt;br&gt;(provider)&lt;br&gt;&lt;/font&gt;" style="rounded=1;whiteSpace=wrap;html=1;strokeColor=#663CDC;strokeWidth=2;fillColor=none;" parent="SlMoRp7Oh4frHvZLBsp3-10" vertex="1">
          <mxGeometry width="110.00000000000001" height="100.00000000000003" as="geometry" />
        </mxCell>
        <mxCell id="SlMoRp7Oh4frHvZLBsp3-12" value="" style="shape=image;verticalLabelPosition=bottom;labelBackgroundColor=#ffffff;verticalAlign=top;aspect=fixed;imageAspect=0;image=data:image/svg+xml,PHN2ZyB4bWxucz0iaHR0cDovL3d3dy53My5vcmcvMjAwMC9zdmciIHhtbG5zOnhsaW5rPSJodHRwOi8vd3d3LnczLm9yZy8xOTk5L3hsaW5rIiB3aWR0aD0iMjBweCIgaGVpZ2h0PSIxOHB4IiB2aWV3Qm94PSIwIDAgMjAgMTgiIHZlcnNpb249IjEuMSI+JiN4YTsgICAgPCEtLSBHZW5lcmF0b3I6IFNrZXRjaCA1OCAoODQ2NjMpIC0gaHR0cHM6Ly9za2V0Y2guY29tIC0tPiYjeGE7ICAgIDx0aXRsZT5Db21iaW5lZCBTaGFwZTwvdGl0bGU+JiN4YTsgICAgPGRlc2M+Q3JlYXRlZCB3aXRoIFNrZXRjaC48L2Rlc2M+JiN4YTsgICAgPGcgaWQ9IlN0eWxlZ3VpZGUtJmFtcDstVHlwZXBhZ2VzIiBzdHJva2U9Im5vbmUiIHN0cm9rZS13aWR0aD0iMSIgZmlsbD0ibm9uZSIgZmlsbC1ydWxlPSJldmVub2RkIj4mI3hhOyAgICAgICAgPGcgaWQ9Ikljb25zIiB0cmFuc2Zvcm09InRyYW5zbGF0ZSgtODg4LjAwMDAwMCwgLTQ3Ny4wMDAwMDApIiBmaWxsPSIjNjYzQ0RDIj4mI3hhOyAgICAgICAgICAgIDxwYXRoIGQ9Ik04OTIsNDgzIEw4OTQsNDgzIEw4OTQsNDkxIEw4OTcsNDkxIEw4OTcsNDgzIEw4OTksNDgzIEw4OTksNDkxIEw5MDIsNDkxIEw5MDIsNDgzIEw5MDQsNDgzIEw5MDQsNDkxIEw5MDYsNDkxIEw5MDYsNDkzIEw5MDgsNDkzIEw5MDgsNDk1IEw4ODgsNDk1IEw4ODgsNDkzIEw4OTAsNDkzIEw4OTAsNDkxIEw4OTIsNDkxIEw4OTIsNDgzIFogTTg5OCw0NzcgQzkwMS44MjQzMzQsNDc3IDkwNS4wNTg3NzcsNDc5LjUyNTYyMyA5MDYuMTI2Mzc1LDQ4Mi45OTk5MTQgTDg4OS44NzM2MjUsNDgyLjk5OTkxNCBDODkwLjk0MTIyMyw0NzkuNTI1NjIzIDg5NC4xNzU2NjYsNDc3IDg5OCw0NzcgWiIgaWQ9IkNvbWJpbmVkLVNoYXBlIi8+JiN4YTsgICAgICAgIDwvZz4mI3hhOyAgICA8L2c+JiN4YTs8L3N2Zz4=;" parent="SlMoRp7Oh4frHvZLBsp3-10" vertex="1">
          <mxGeometry x="41.25" y="16.50504278728597" width="25" height="22.5" as="geometry" />
        </mxCell>
        <mxCell id="SlMoRp7Oh4frHvZLBsp3-13" value="" style="group" parent="1" vertex="1" connectable="0">
          <mxGeometry x="458" y="212" width="110" height="100" as="geometry" />
        </mxCell>
        <mxCell id="SlMoRp7Oh4frHvZLBsp3-14" value="&lt;font color=&quot;#663cdc&quot; style=&quot;font-size: 14px&quot;&gt;&lt;br&gt;Security&amp;nbsp;Server&lt;br&gt;(provider)&lt;br&gt;&lt;/font&gt;" style="rounded=1;whiteSpace=wrap;html=1;strokeColor=#663CDC;strokeWidth=2;fillColor=none;" parent="SlMoRp7Oh4frHvZLBsp3-13" vertex="1">
          <mxGeometry width="110.00000000000001" height="100.00000000000003" as="geometry" />
        </mxCell>
        <mxCell id="SlMoRp7Oh4frHvZLBsp3-15" value="" style="shape=image;verticalLabelPosition=bottom;labelBackgroundColor=#ffffff;verticalAlign=top;aspect=fixed;imageAspect=0;image=data:image/svg+xml,PHN2ZyB4bWxucz0iaHR0cDovL3d3dy53My5vcmcvMjAwMC9zdmciIHhtbG5zOnhsaW5rPSJodHRwOi8vd3d3LnczLm9yZy8xOTk5L3hsaW5rIiB3aWR0aD0iMjBweCIgaGVpZ2h0PSIxOHB4IiB2aWV3Qm94PSIwIDAgMjAgMTgiIHZlcnNpb249IjEuMSI+JiN4YTsgICAgPCEtLSBHZW5lcmF0b3I6IFNrZXRjaCA1OCAoODQ2NjMpIC0gaHR0cHM6Ly9za2V0Y2guY29tIC0tPiYjeGE7ICAgIDx0aXRsZT5Db21iaW5lZCBTaGFwZTwvdGl0bGU+JiN4YTsgICAgPGRlc2M+Q3JlYXRlZCB3aXRoIFNrZXRjaC48L2Rlc2M+JiN4YTsgICAgPGcgaWQ9IlN0eWxlZ3VpZGUtJmFtcDstVHlwZXBhZ2VzIiBzdHJva2U9Im5vbmUiIHN0cm9rZS13aWR0aD0iMSIgZmlsbD0ibm9uZSIgZmlsbC1ydWxlPSJldmVub2RkIj4mI3hhOyAgICAgICAgPGcgaWQ9Ikljb25zIiB0cmFuc2Zvcm09InRyYW5zbGF0ZSgtODg4LjAwMDAwMCwgLTQ3Ny4wMDAwMDApIiBmaWxsPSIjNjYzQ0RDIj4mI3hhOyAgICAgICAgICAgIDxwYXRoIGQ9Ik04OTIsNDgzIEw4OTQsNDgzIEw4OTQsNDkxIEw4OTcsNDkxIEw4OTcsNDgzIEw4OTksNDgzIEw4OTksNDkxIEw5MDIsNDkxIEw5MDIsNDgzIEw5MDQsNDgzIEw5MDQsNDkxIEw5MDYsNDkxIEw5MDYsNDkzIEw5MDgsNDkzIEw5MDgsNDk1IEw4ODgsNDk1IEw4ODgsNDkzIEw4OTAsNDkzIEw4OTAsNDkxIEw4OTIsNDkxIEw4OTIsNDgzIFogTTg5OCw0NzcgQzkwMS44MjQzMzQsNDc3IDkwNS4wNTg3NzcsNDc5LjUyNTYyMyA5MDYuMTI2Mzc1LDQ4Mi45OTk5MTQgTDg4OS44NzM2MjUsNDgyLjk5OTkxNCBDODkwLjk0MTIyMyw0NzkuNTI1NjIzIDg5NC4xNzU2NjYsNDc3IDg5OCw0NzcgWiIgaWQ9IkNvbWJpbmVkLVNoYXBlIi8+JiN4YTsgICAgICAgIDwvZz4mI3hhOyAgICA8L2c+JiN4YTs8L3N2Zz4=;" parent="SlMoRp7Oh4frHvZLBsp3-13" vertex="1">
          <mxGeometry x="41.25" y="16.50504278728597" width="25" height="22.5" as="geometry" />
        </mxCell>
        <mxCell id="SlMoRp7Oh4frHvZLBsp3-16" style="rounded=0;orthogonalLoop=1;jettySize=auto;html=1;entryX=0;entryY=0.5;entryDx=0;entryDy=0;fontColor=#663CDC;" parent="1" source="SlMoRp7Oh4frHvZLBsp3-4" target="SlMoRp7Oh4frHvZLBsp3-14" edge="1">
          <mxGeometry relative="1" as="geometry" />
        </mxCell>
        <mxCell id="SlMoRp7Oh4frHvZLBsp3-17" style="edgeStyle=none;rounded=0;orthogonalLoop=1;jettySize=auto;html=1;entryX=0;entryY=0.5;entryDx=0;entryDy=0;fontColor=#663CDC;dashed=1;" parent="1" source="SlMoRp7Oh4frHvZLBsp3-4" target="SlMoRp7Oh4frHvZLBsp3-11" edge="1">
          <mxGeometry relative="1" as="geometry" />
        </mxCell>
        <mxCell id="SlMoRp7Oh4frHvZLBsp3-22" style="edgeStyle=none;rounded=0;orthogonalLoop=1;jettySize=auto;html=1;fontColor=#663CDC;" parent="1" source="SlMoRp7Oh4frHvZLBsp3-18" target="SlMoRp7Oh4frHvZLBsp3-4" edge="1">
          <mxGeometry relative="1" as="geometry" />
        </mxCell>
        <mxCell id="SlMoRp7Oh4frHvZLBsp3-18" value="&lt;font color=&quot;#ffffff&quot;&gt;&lt;br&gt;Information&lt;br&gt;System&lt;/font&gt;" style="ellipse;whiteSpace=wrap;html=1;aspect=fixed;strokeWidth=2;strokeColor=none;fillColor=#663CDC;fontColor=#663CDC;" parent="1" vertex="1">
          <mxGeometry x="50" y="131.9999999999999" width="80" height="80" as="geometry" />
        </mxCell>
        <mxCell id="SlMoRp7Oh4frHvZLBsp3-19" value="" style="shape=image;verticalLabelPosition=bottom;labelBackgroundColor=#ffffff;verticalAlign=top;aspect=fixed;imageAspect=0;image=data:image/svg+xml,PHN2ZyB4bWxucz0iaHR0cDovL3d3dy53My5vcmcvMjAwMC9zdmciIHhtbG5zOnhsaW5rPSJodHRwOi8vd3d3LnczLm9yZy8xOTk5L3hsaW5rIiB3aWR0aD0iMThweCIgaGVpZ2h0PSIyMnB4IiB2aWV3Qm94PSIwIDAgMTggMjIiIHZlcnNpb249IjEuMSI+JiN4YTsgICAgPCEtLSBHZW5lcmF0b3I6IFNrZXRjaCA1OCAoODQ2NjMpIC0gaHR0cHM6Ly9za2V0Y2guY29tIC0tPiYjeGE7ICAgIDx0aXRsZT5saWJyYXJ5LXNoZWx2ZXMgY29weSAzPC90aXRsZT4mI3hhOyAgICA8ZGVzYz5DcmVhdGVkIHdpdGggU2tldGNoLjwvZGVzYz4mI3hhOyAgICA8ZyBpZD0iU3R5bGVndWlkZS0mYW1wOy1UeXBlcGFnZXMiIHN0cm9rZT0ibm9uZSIgc3Ryb2tlLXdpZHRoPSIxIiBmaWxsPSJub25lIiBmaWxsLXJ1bGU9ImV2ZW5vZGQiPiYjeGE7ICAgICAgICA8ZyBpZD0iSWNvbnMiIHRyYW5zZm9ybT0idHJhbnNsYXRlKC03MzguMDAwMDAwLCAtMTE2Ny4wMDAwMDApIiBmaWxsPSIjRkZGRkZGIj4mI3hhOyAgICAgICAgICAgIDxnIGlkPSJsaWJyYXJ5LXNoZWx2ZXMtY29weS0zIiB0cmFuc2Zvcm09InRyYW5zbGF0ZSg3MzguMDAwMDAwLCAxMTY3LjAwMDAwMCkiPiYjeGE7ICAgICAgICAgICAgICAgIDxwYXRoIGQ9Ik0xNi41LDggTDE2LjUsMC41IEwxMy41LDAuNSBMMTMuNSw4IEwxMC41LDggTDEwLjUsMC41IEw3LjUsMC41IEw3LjUsOCBMNC41LDggTDQuNSwwLjUgTDEuNjUsMC41IEwxLjY1LDggTDAsOCBMMCw5LjUgTDE4LDkuNSBMMTgsOCBMMTYuNSw4IE0xNi41LDEyLjUgTDEzLjUsMTIuNSBMMTMuNSwyMCBMMTAuNSwyMCBMMTAuNSwxMi41IEw3LjUsMTIuNSBMNy41LDIwIEw0LjUsMjAgTDQuNSwxMi41IEwxLjY1LDEyLjUgTDEuNjUsMjAgTDAsMjAgTDAsMjEuNSBMMTgsMjEuNSBMMTgsMjAgTDE2LjUsMjAgTDE2LjUsMTIuNSBaIiBpZD0iU2hhcGUiLz4mI3hhOyAgICAgICAgICAgIDwvZz4mI3hhOyAgICAgICAgPC9nPiYjeGE7ICAgIDwvZz4mI3hhOzwvc3ZnPg==;imageBackground=none;fontColor=#663CDC;" parent="1" vertex="1">
          <mxGeometry x="81" y="142.1099999999998" width="18" height="22" as="geometry" />
        </mxCell>
        <mxCell id="SlMoRp7Oh4frHvZLBsp3-20" value="&lt;font color=&quot;#ffffff&quot;&gt;&lt;br&gt;Information&lt;br&gt;System&lt;/font&gt;" style="ellipse;whiteSpace=wrap;html=1;aspect=fixed;strokeWidth=2;strokeColor=none;fillColor=#663CDC;fontColor=#663CDC;" parent="1" vertex="1">
          <mxGeometry x="740" y="131.9999999999999" width="80" height="80" as="geometry" />
        </mxCell>
        <mxCell id="SlMoRp7Oh4frHvZLBsp3-21" value="" style="shape=image;verticalLabelPosition=bottom;labelBackgroundColor=#ffffff;verticalAlign=top;aspect=fixed;imageAspect=0;image=data:image/svg+xml,PHN2ZyB4bWxucz0iaHR0cDovL3d3dy53My5vcmcvMjAwMC9zdmciIHhtbG5zOnhsaW5rPSJodHRwOi8vd3d3LnczLm9yZy8xOTk5L3hsaW5rIiB3aWR0aD0iMThweCIgaGVpZ2h0PSIyMnB4IiB2aWV3Qm94PSIwIDAgMTggMjIiIHZlcnNpb249IjEuMSI+JiN4YTsgICAgPCEtLSBHZW5lcmF0b3I6IFNrZXRjaCA1OCAoODQ2NjMpIC0gaHR0cHM6Ly9za2V0Y2guY29tIC0tPiYjeGE7ICAgIDx0aXRsZT5saWJyYXJ5LXNoZWx2ZXMgY29weSAzPC90aXRsZT4mI3hhOyAgICA8ZGVzYz5DcmVhdGVkIHdpdGggU2tldGNoLjwvZGVzYz4mI3hhOyAgICA8ZyBpZD0iU3R5bGVndWlkZS0mYW1wOy1UeXBlcGFnZXMiIHN0cm9rZT0ibm9uZSIgc3Ryb2tlLXdpZHRoPSIxIiBmaWxsPSJub25lIiBmaWxsLXJ1bGU9ImV2ZW5vZGQiPiYjeGE7ICAgICAgICA8ZyBpZD0iSWNvbnMiIHRyYW5zZm9ybT0idHJhbnNsYXRlKC03MzguMDAwMDAwLCAtMTE2Ny4wMDAwMDApIiBmaWxsPSIjRkZGRkZGIj4mI3hhOyAgICAgICAgICAgIDxnIGlkPSJsaWJyYXJ5LXNoZWx2ZXMtY29weS0zIiB0cmFuc2Zvcm09InRyYW5zbGF0ZSg3MzguMDAwMDAwLCAxMTY3LjAwMDAwMCkiPiYjeGE7ICAgICAgICAgICAgICAgIDxwYXRoIGQ9Ik0xNi41LDggTDE2LjUsMC41IEwxMy41LDAuNSBMMTMuNSw4IEwxMC41LDggTDEwLjUsMC41IEw3LjUsMC41IEw3LjUsOCBMNC41LDggTDQuNSwwLjUgTDEuNjUsMC41IEwxLjY1LDggTDAsOCBMMCw5LjUgTDE4LDkuNSBMMTgsOCBMMTYuNSw4IE0xNi41LDEyLjUgTDEzLjUsMTIuNSBMMTMuNSwyMCBMMTAuNSwyMCBMMTAuNSwxMi41IEw3LjUsMTIuNSBMNy41LDIwIEw0LjUsMjAgTDQuNSwxMi41IEwxLjY1LDEyLjUgTDEuNjUsMjAgTDAsMjAgTDAsMjEuNSBMMTgsMjEuNSBMMTgsMjAgTDE2LjUsMjAgTDE2LjUsMTIuNSBaIiBpZD0iU2hhcGUiLz4mI3hhOyAgICAgICAgICAgIDwvZz4mI3hhOyAgICAgICAgPC9nPiYjeGE7ICAgIDwvZz4mI3hhOzwvc3ZnPg==;imageBackground=none;fontColor=#663CDC;" parent="1" vertex="1">
          <mxGeometry x="771" y="142.1099999999998" width="18" height="22" as="geometry" />
        </mxCell>
        <mxCell id="SlMoRp7Oh4frHvZLBsp3-23" style="edgeStyle=none;rounded=0;orthogonalLoop=1;jettySize=auto;html=1;entryX=0;entryY=0.5;entryDx=0;entryDy=0;fontColor=#663CDC;" parent="1" source="SlMoRp7Oh4frHvZLBsp3-14" target="SlMoRp7Oh4frHvZLBsp3-20" edge="1">
          <mxGeometry relative="1" as="geometry" />
        </mxCell>
        <mxCell id="SlMoRp7Oh4frHvZLBsp3-24" style="edgeStyle=none;rounded=0;orthogonalLoop=1;jettySize=auto;html=1;entryX=0;entryY=0.5;entryDx=0;entryDy=0;fontColor=#663CDC;" parent="1" source="SlMoRp7Oh4frHvZLBsp3-11" target="SlMoRp7Oh4frHvZLBsp3-20" edge="1">
          <mxGeometry relative="1" as="geometry" />
        </mxCell>
      </root>
    </mxGraphModel>
  </diagram>
</mxfile>
